<svg width="1258" height="47" viewBox="0 0 1258 47" fill="none" xmlns="http://www.w3.org/2000/svg">
<path d="M134.971 22.6761L140.674 22.675L141.786 20.7554L136.078 20.7636C137.387 18.2722 138.717 16.1895 138.717 16.1895H134.597C134.597 16.1895 133.242 18.3356 131.947 20.7471L129.156 20.7554L128.044 22.6761L130.833 22.6714C129.955 24.3045 129.061 25.6688 128.786 26.2042C127.811 28.1038 125.031 29.2661 123.851 29.2661C122.669 29.2661 122.449 28.854 122.86 28.2893C123.271 27.7246 124.739 25.2109 125.919 23.0037C127.1 20.7965 125.357 20.7354 124.552 20.7354H121.266C119.605 20.7354 118.613 21.7193 118.255 21.9764C117.896 22.2335 117.278 22.2535 117.587 21.8437C117.895 21.4328 118.282 20.7166 118.282 20.7166H110.425L109.947 21.6148C109.947 21.6148 110.041 21.6688 111.273 21.6688C112.506 21.6688 112.703 22.1055 112.446 22.6703C112.189 23.235 111.691 24.1601 110.305 26.3674C108.919 28.5746 106.499 29.0618 105.524 29.0618C104.318 29.0618 104.246 28.3069 104.537 27.7856C105.175 26.6421 108.637 20.6802 108.637 20.6802H104.495C104.495 20.6802 103.725 22.0374 102.787 23.633H95.7014C95.7014 23.633 93.3227 27.788 93.0139 28.301C92.7052 28.8141 92.6887 28.8564 91.8164 28.8564H88.3764C87.8117 28.8564 87.834 28.5899 88.1416 28.0768C88.4504 27.5637 91.1777 22.8405 91.1777 22.8405H96.4915L97.6984 20.7636C97.6984 20.7636 90.4803 20.7366 89.4883 20.7366C88.4962 20.7366 87.706 21.2485 86.4228 23.3019C85.1395 25.3553 83.8786 27.8044 83.4348 28.4642C82.9898 29.1229 82.5766 31.3982 85.3826 31.3982H93.9051C95.0169 31.3982 95.854 30.7654 96.4704 29.7393C97.0868 28.7131 98.5625 26.0739 98.5625 26.0739H101.389C100.655 27.3442 99.9902 28.3574 99.8294 28.7167C99.3668 29.744 98.869 31.3982 102.104 31.3982H105.149C105.689 31.3982 106.8 31.1293 108.339 30.0645L107.596 31.4264H111.986C112.995 29.6042 114.655 26.2922 117.693 24.5441C121.081 22.5928 121.266 23.4757 120.907 24.0909C120.548 24.7072 118.871 27.6307 118.124 28.8975C116.944 30.9004 118.206 31.4264 119.507 31.4264H125.018C126.335 31.4264 127.293 30.088 127.293 30.088C127.293 30.088 127.052 31.4264 128.046 31.4264H134.701L136.141 28.9609L132.837 29.0102C131.811 29.0102 131.783 28.2576 132.074 27.6847C132.4 27.0366 133.76 24.9855 134.971 22.6761V22.6761ZM138.172 32.2471C139.207 32.2471 140.091 31.4416 140.091 30.3416C140.091 29.2509 139.207 28.4478 138.172 28.4478C137.128 28.4478 136.243 29.2509 136.243 30.3416C136.243 31.4416 137.128 32.2471 138.172 32.2471Z" fill="white"/>
<path fill-rule="evenodd" clip-rule="evenodd" d="M7.14884 14.2571H21.3338C24.6658 14.2571 23.4283 17.0232 23.0256 17.7535L20.9252 21.3801C20.4815 22.0247 19.6408 22.5354 18.9728 22.5354C19.7207 23.3901 19.0127 24.9117 18.7298 25.4224L15.966 30.195C15.5281 30.856 14.7168 31.4418 14.037 31.4418H0L8.789 16.3152L8.79147 16.3109C8.99743 15.9461 9.36434 15.2962 8.20667 15.2962H6.5125L7.14884 14.2571ZM72.0684 14.2571H86.8181C90.1501 14.2571 88.8257 16.8318 88.2082 17.6525L84.6531 23.7928C84.2281 24.4362 83.2267 24.7943 82.5586 24.7943H73.4996L69.7086 31.2915L65.3187 31.3948L73.9939 16.4115C74.1888 16.0487 74.3719 15.295 73.2096 15.295H71.4638L72.0684 14.2571ZM36.8349 30.0353C36.8349 30.0353 36.6471 31.396 38.1017 31.396H42.3459C44.2444 31.396 45.0498 30.1891 45.0498 30.1891C45.0498 30.1891 45.1684 31.396 46.0583 31.396L56.761 31.4101L58.2192 28.8918C58.2192 28.8918 51.2617 28.9058 50.5937 28.9058C49.9257 28.9058 49.7836 28.6558 50.0395 28.1427C50.1941 27.8343 51.0085 26.4451 51.734 25.2075C52.2153 24.3865 52.6575 23.6322 52.842 23.3044C53.2775 22.5308 53.8128 22.5364 54.1307 22.5397C54.1505 22.5399 54.1694 22.5401 54.1875 22.5401H57.3187C57.8834 22.5401 57.9128 22.6516 57.7578 22.9592C57.604 23.2668 56.5192 25.0984 56.5192 25.0984L52.8514 25.0561L51.722 27.2117H57.2154C58.5491 27.2117 59.3898 26.607 59.6974 26.0928C60.005 25.5797 61.6122 22.7867 61.6122 22.7867C62.4846 21.4001 62.0584 20.7356 60.7235 20.7356H51.8934C51.1009 20.7344 50.2978 20.8753 49.773 21.7347C49.3164 22.4809 48.8897 23.2374 48.4638 23.9924C48.0642 24.701 47.6653 25.4083 47.2429 26.1045C46.2544 27.733 44.6377 29.2134 42.8931 29.2134C42.7771 29.2134 42.6668 29.2161 42.5634 29.2185C41.3841 29.2466 41.109 29.2531 43.7525 25.0995C44.4569 23.9924 46.2755 20.6675 46.2755 20.6675H41.8869C41.8869 20.6675 40.3712 23.6226 38.9341 25.7793C37.5992 27.7811 35.2429 28.5454 34.1134 28.5454C32.984 28.5454 32.9523 28.2366 33.4654 27.3631C33.9784 26.4896 37.3609 20.6675 37.3609 20.6675H33.0204C33.0204 20.6675 29.7459 26.661 28.8678 27.7905C28.1081 28.7661 26.5666 29.2134 25.8986 29.2134H24.8208C24.3077 29.2134 24.0952 28.9305 24.5061 28.212C24.917 27.4935 32.7351 14 32.7351 14L25.4418 14.0235L24.8055 15.0625H26.4997C27.662 15.0625 27.3121 15.7317 27.1067 16.0957L19.5457 29.1559C18.8659 30.175 19.089 31.396 20.9886 31.396H25.6438C26.1503 31.4027 26.6497 31.2756 27.0914 31.0276C27.5332 30.7797 27.9017 30.4195 28.1598 29.9836C28.1598 29.9836 27.6456 31.396 28.741 31.396H34.1311C35.5505 31.396 36.5273 30.4979 36.8349 30.0353ZM65.5829 27.0062H61.2201L63.1209 23.7212H67.4849L65.5829 27.0062ZM110.646 16.2988L108.885 19.3396H104.665L106.426 16.2988H110.646ZM8.54608 23.7525L13.7742 23.7631C15.5654 23.7631 14.8332 24.7843 14.5442 25.1873C14.5051 25.2418 14.4742 25.285 14.4586 25.3128L12.8784 28.0413C12.6776 28.3442 12.3841 28.6624 12.0718 28.6624H5.68607L8.54608 23.7525ZM12.6518 16.6635L17.9421 16.7152C19.3779 16.7152 18.7604 17.8763 18.6547 18.0665L17.368 20.289C17.2048 20.5356 16.8103 20.6823 16.5567 20.6823L10.3224 20.6859L12.6518 16.6635ZM77.967 16.9935H83.2279C84.5371 16.9935 84.0251 17.8445 83.848 18.1389C83.8308 18.1674 83.8168 18.1906 83.8079 18.2074L81.8015 21.6744C81.6453 21.9221 81.2555 22.13 81.0019 22.13H74.9778L77.967 16.9935ZM138.173 28.7646C137.305 28.7646 136.626 29.4432 136.626 30.3425C136.626 31.2583 137.304 31.9298 138.173 31.931C139.032 31.931 139.711 31.2583 139.711 30.3425C139.711 29.4432 139.032 28.7646 138.173 28.7646Z" fill="white"/>
<path d="M137.771 30.4929H138.152L138.73 31.4427H139.101L138.477 30.4777C138.799 30.4378 139.046 30.2675 139.046 29.8754C139.046 29.4433 138.79 29.252 138.272 29.252H137.439V31.4427H137.771V30.4929V30.4929Z" fill="white"/>
<path d="M178.382 12.1716V3H264.532V12.2763H178.382V12.1716ZM178.382 43.8953V34.7865H264.532V44H178.382V43.8953ZM264.383 21.3641C263.896 20.715 263.153 20.38 262.305 20.38C260.715 20.38 259.358 21.2804 257.831 23.4162C256.517 25.2171 254.884 27.4786 253.697 27.4786C253.421 27.4786 253.188 27.3948 253.039 27.1854C252.679 26.7247 252.679 25.6987 253.039 24.212C253.463 22.5368 254.269 21.3641 255.011 21.3641C255.541 21.3641 255.753 21.6573 255.817 21.8458C255.605 21.8248 255.351 21.8876 255.16 22.0342C254.905 22.2227 254.757 22.5158 254.757 22.8509C254.757 23.144 254.863 23.4372 255.054 23.6256C255.245 23.8141 255.499 23.9188 255.796 23.9188C256.538 23.9188 257.068 23.3115 257.068 22.4321C257.068 21.8667 256.856 21.3432 256.496 20.9872C256.093 20.5894 255.52 20.38 254.799 20.38C253.018 20.38 251.449 21.8876 250.686 22.7671C249.816 23.7722 248.82 24.7773 248.332 25.2589C248.799 23.7094 248.693 22.2436 248.035 21.3013C247.611 20.6941 246.975 20.38 246.254 20.38C245.152 20.38 244.431 20.8616 244.049 21.1966L244.24 20.5266H240.487L240.254 21.427H241.293C240.805 22.9974 239.469 24.4423 238.854 25.0705C238.939 24.8192 239.024 24.4632 239.045 24.0026C239.151 22.8299 238.833 21.7829 238.197 21.1129C237.752 20.6313 237.158 20.38 236.501 20.38C234.635 20.38 233.002 21.5107 231.666 23.7094L231.263 24.4004C230.394 25.8871 229.503 27.4367 228.062 27.4367C227.659 27.4367 227.341 27.2901 227.107 26.976C226.514 26.2012 226.471 24.4423 227.023 22.5158C227.722 20.0868 229.207 17.6159 230.691 17.6159C230.945 17.6159 231.157 17.7206 231.327 17.9091C231.899 18.5582 231.942 20.0868 231.857 20.6941L231.836 20.8197H232.938L234.083 16.7155H233.044L233.023 16.7574L232.599 17.3437C232.366 17.0506 231.603 16.3596 229.97 16.3596C228.104 16.3596 224.839 18.3279 223.736 22.5577C223.206 24.6098 223.439 26.4106 224.393 27.6251C225.072 28.5046 226.09 28.9862 227.15 28.9862C228.973 28.9862 230.585 27.6251 231.285 26.5363C231.391 27.2692 231.878 28.9862 233.999 28.9862C235.907 28.9862 238.133 27.5623 240.466 24.8611L238.663 31.834H241.356L242.247 28.2324C242.459 28.5255 242.989 28.9862 244.007 28.9862C245.448 28.9862 247.844 27.3529 249.922 24.9867C249.626 26.1803 249.795 27.2482 250.389 28.002C250.855 28.6302 251.576 28.9862 252.318 28.9862C254.82 28.9862 256.58 26.9132 257.174 26.0965C257.153 26.8504 257.407 27.5623 257.874 28.0858C258.383 28.6512 259.125 28.9653 259.952 28.9653C262.157 28.9653 264.065 27.4576 264.722 25.2171C265.189 23.6047 265.062 22.2646 264.383 21.3641V21.3641ZM236.903 24.8401C236.543 26.2431 235.716 27.8764 234.592 27.8764C234.338 27.8764 234.147 27.7926 234.02 27.6251C233.659 27.1645 233.744 26.0546 234.232 24.3167C234.825 22.3693 235.483 21.427 236.31 21.427C236.522 21.427 236.691 21.5107 236.819 21.6782C237.221 22.2017 237.264 23.5 236.903 24.8401V24.8401ZM245.661 24.903C245.236 26.7247 244.494 27.7508 243.646 27.7508C242.989 27.7508 242.671 27.1435 242.628 26.9969C242.692 26.7457 243.116 24.882 243.349 24.0444C243.689 22.7043 244.473 21.7201 245.152 21.7201C245.364 21.7201 245.533 21.8039 245.661 21.9505C245.894 22.2646 246.106 23.0184 245.661 24.903V24.903ZM262.878 24.8401C262.517 26.2431 261.69 27.8764 260.567 27.8764C260.312 27.8764 260.121 27.7926 259.994 27.6251C259.634 27.1645 259.718 26.0546 260.206 24.3167C260.779 22.3693 261.436 21.427 262.263 21.427C262.475 21.427 262.645 21.5107 262.772 21.6782C263.196 22.2017 263.238 23.5 262.878 24.8401ZM219.58 23.165C219.771 23.3534 220.004 23.4372 220.301 23.4372C220.81 23.4372 221.361 23.1231 221.361 22.2227C221.361 21.7829 221.192 21.3851 220.874 21.071C220.407 20.6103 219.665 20.359 218.753 20.359C216.951 20.359 215.7 21.0919 215.233 22.4111C214.894 23.3953 215.424 24.4423 216.718 25.3636L216.887 25.4893C217.651 26.0128 218.096 26.3478 217.99 27.0179C217.905 27.5623 217.311 27.9392 216.59 27.9392C215.488 27.9183 215.297 27.3529 215.276 27.1645C215.467 27.0807 215.976 26.7875 215.976 26.1803C215.976 25.8871 215.891 25.6568 215.7 25.4683C215.424 25.1961 215.043 25.1752 214.894 25.1752C214.534 25.1752 213.919 25.3008 213.834 26.1384C213.813 26.264 213.834 26.3897 213.834 26.4525C213.749 26.5781 213.41 27.0179 212.837 27.2063C212.71 27.2482 212.519 27.2273 212.392 27.1016C212.201 26.9341 212.18 26.5991 212.307 26.1803C212.435 25.7406 213.749 20.5056 213.749 20.5056H211.078L210.865 21.2176C210.653 20.8825 210.145 20.38 208.978 20.38C207.176 20.38 205.671 22.118 204.928 23.6047C204.292 24.8401 203.126 27.1645 202.214 27.1645C202.108 27.1645 202.045 27.1226 201.981 27.0598C201.875 26.9341 201.769 26.5572 202.066 25.4893C202.299 24.6098 204.208 16.883 204.208 16.883H199.649L199.394 17.951H201.112L199.924 22.6205C199.055 25.9918 197.528 27.1854 196.511 27.1854C196.299 27.1854 196.129 27.1226 196.044 26.9969C195.769 26.6619 195.959 25.8452 196.087 25.238C196.277 24.4004 196.871 22.0133 196.977 21.5735H198.864L199.14 20.5056H197.274L197.91 17.8672H196.892L196.871 17.9091C195.514 19.8984 194.92 20.5475 192.906 20.5475H192.821L192.567 21.5526H194.178C194.115 21.8876 193.924 22.7671 193.924 22.7671C193.033 26.0756 191.337 27.4576 190.616 27.4576C190.277 27.4576 190.065 27.3948 189.959 27.2692C189.789 27.0388 189.81 26.5572 190.022 25.6987C190.425 24.191 192.164 18.0975 192.355 17.3647H194.072L194.39 16.3386H190.722C189.408 16.3386 187.86 16.4433 186.333 17.26C184.467 18.286 183.089 20.1915 182.283 22.9346C182.283 22.9556 181.774 24.903 181.329 26.3478C180.862 27.8764 179.611 28.0439 179.103 28.0439C178.785 28.0439 178.445 27.8973 178.17 27.6251L178 27.4576V28.8396L178.085 28.8606C178.551 28.9653 179.124 29.0281 179.76 29.0281C181.52 29.0281 183.089 27.7717 183.895 26.7038C184.552 25.8243 184.764 25.0495 185.103 23.856L185.167 23.6047H187.817C187.711 23.9816 187.372 25.0914 187.075 26.1593C186.821 27.0598 186.884 27.7717 187.266 28.2533C187.626 28.7349 188.305 28.9653 189.238 28.9653C190.192 28.9653 191.91 28.7349 193.076 27.2692C193.097 27.6251 193.224 28.1067 193.563 28.4627C193.903 28.7978 194.39 28.9653 195.005 28.9653C196.447 28.9653 198.08 28.023 198.885 27.0807C198.907 27.4367 198.992 28.0439 199.394 28.4627C199.691 28.7978 200.136 28.9653 200.667 28.9653C202.278 28.9653 203.762 27.6879 204.441 26.6619C204.568 27.3529 205.035 28.9653 206.985 28.9653C208.236 28.9653 209.148 28.1905 209.657 27.6251C209.763 28.0439 210.123 28.9653 211.247 28.9653C212.435 28.9653 213.622 28.1696 214.173 27.5623C214.682 28.5255 215.255 28.9653 217.184 28.9653C219.029 28.9653 220.556 27.7298 220.81 26.5781C221.107 25.3218 220.407 24.8192 219.241 23.9816L219.092 23.8769L218.859 23.7094C218.287 23.3115 217.799 22.9556 217.799 22.3483C217.799 21.6992 218.329 21.406 218.859 21.406C219.304 21.406 219.538 21.5735 219.644 21.6782C219.517 21.8039 219.283 22.0761 219.283 22.474C219.283 22.7043 219.389 22.9765 219.58 23.165V23.165ZM188.114 22.474H185.442C186.481 18.998 187.711 17.4484 189.535 17.3856L188.114 22.474ZM209.996 24.3795C209.466 26.3687 208.851 27.2692 207.961 27.2692C207.77 27.2692 207.621 27.1854 207.494 27.0388C207.112 26.5363 207.134 25.3218 207.537 23.8769C208.109 21.8248 208.83 21.5526 209.466 21.5526C209.657 21.5526 209.827 21.6364 209.954 21.8039C210.293 22.2436 210.314 23.1859 209.996 24.3795V24.3795Z" fill="white"/>
<path fill-rule="evenodd" clip-rule="evenodd" d="M308.588 1.78977C304.839 1.78977 301.794 4.84589 301.794 8.62309V37.5319C301.794 41.308 304.839 44.3663 308.588 44.3663H392.603C396.351 44.3663 399.398 41.308 399.398 37.5319V8.62309C399.398 4.84597 396.351 1.78977 392.603 1.78977H308.588ZM301 8.62309C301 4.41743 304.393 1 308.588 1H392.603C396.797 1 400.191 4.41735 400.191 8.62309V37.5319C400.191 41.7363 396.797 45.1561 392.603 45.1561H308.588C304.393 45.1561 301 41.7363 301 37.5319V8.62309Z" fill="white"/>
<path fill-rule="evenodd" clip-rule="evenodd" d="M396.352 35.1301C396.352 38.5462 393.613 41.3162 390.236 41.3162H310.959C307.579 41.3162 304.84 38.5467 304.84 35.1301V28.9428C304.84 25.529 307.579 22.7578 310.959 22.7578H390.236C393.613 22.7578 396.352 25.529 396.352 28.9428V35.1301Z" fill="white"/>
<path fill-rule="evenodd" clip-rule="evenodd" d="M357.201 25.4558C357.67 26.1136 358.004 26.8327 358.764 27.189C362.328 27.8367 366.245 28.8207 368.434 31.473C368.589 31.7331 368.962 31.9697 368.788 32.3118C368.244 32.6929 368.678 33.5725 367.897 33.6751C365.369 35.0604 362.59 35.9073 359.729 36.164C358.912 36.6684 358.041 37.7898 356.891 37.3934C356.5 37.194 356.517 36.5168 356.029 36.4371C352.489 36.5085 349.08 36.082 345.729 35.5753C344.991 35.9764 344.389 36.4991 343.492 36.4843L339.926 35.636C339.731 35.498 339.419 35.3776 339.4 35.0579C339.32 34.7193 339.611 34.5187 339.649 34.2167C337.546 33.6657 335.817 34.832 334.086 35.6177C332.938 36 331.771 36.3445 330.566 36.5887C330.35 36.3304 330.641 36.0094 330.699 35.7499C331.181 34.5677 331.86 33.4663 332.458 32.3242C332.165 31.7656 331.521 31.2883 331.13 30.7297C330.621 29.9716 330.053 29.1935 329.797 28.2939C332.251 28.4054 334.319 29.6767 336.58 30.3693C338.761 30.3209 340.53 29.275 342.591 28.9281C343.816 28.603 345.079 28.3382 346.307 28.0361C346.75 27.6733 346.068 27.1743 346.166 26.7171C346.828 26.6339 347.565 26.8103 348.15 26.4681L348.595 26.087C349.454 26.4233 350.604 26.3395 351.243 25.5974C351.711 25.6564 352.219 25.775 352.701 25.6517C353.092 25.5903 353.384 25.3278 353.735 25.1491C354.727 25.4258 355.952 25.3001 356.728 24.6777C357.004 24.8152 357.024 25.2346 357.201 25.4558V25.4558Z" fill="black"/>
<path fill-rule="evenodd" clip-rule="evenodd" d="M366.77 26.5661C368.972 27.2117 371.137 28.4101 371.365 30.9774C371.668 33.9026 369.456 36.2622 367.34 37.5144C364.007 39.3462 359.882 39.38 355.851 39.394C355.618 39.4156 355.324 39.3368 355.026 39.3782C348.427 39.1858 342.037 38.0386 335.301 38.5798C333.652 38.763 331.942 38.809 330.351 39.1094C330.136 39.1105 329.919 39.033 329.82 38.8347C329.721 38.5793 329.957 38.3804 330.171 38.3005C332.783 37.6788 335.73 37.6876 338.48 37.5989C346.475 37.47 354.34 39.6366 362.353 38.206C365.848 37.6386 369.773 36.1229 370.564 32.2271C370.93 30.4653 369.707 29.0073 368.524 28.22C367.756 27.7704 366.892 27.3761 365.968 27.2817C365.871 27.242 365.89 27.34 365.831 27.3796C366.462 28.1302 367.171 28.858 367.588 29.8057C367.607 29.8664 367.648 29.9049 367.626 29.9848C366.899 29.5905 366.327 29.0586 365.56 28.6078C363.689 27.4473 361.664 26.7031 359.579 26.0196L359.559 25.959C361.976 26.1287 364.469 26.1205 366.77 26.5661V26.5661Z" fill="black"/>
<path fill-rule="evenodd" clip-rule="evenodd" d="M356.149 26.0165C356.358 26.4302 356.742 26.8245 356.765 27.3173L354.449 27.2857C354.161 27.1281 353.939 26.7543 353.898 26.3987C354.606 26.298 355.359 26.3157 355.966 25.959L356.149 26.0165V26.0165ZM353.551 27.2011C353.573 27.4378 353.308 27.3383 353.164 27.3598C352.573 27.283 351.663 27.7 351.457 26.9904C351.416 26.892 351.475 26.793 351.576 26.793C352.145 26.8123 352.652 26.6912 353.163 26.5314L353.551 27.2011V27.2011ZM350.959 27.2813C351.036 27.5058 350.803 27.5451 350.647 27.5656L348.953 27.6629C348.889 27.6121 348.839 27.5452 348.811 27.4694C348.783 27.3937 348.777 27.312 348.794 27.2332C349.414 27.1751 350.03 27.0971 350.589 26.8704C350.879 26.8123 350.86 27.1331 350.959 27.2813V27.2813ZM348.368 27.8321C348.215 28.0937 347.771 27.9068 347.52 28.0578C347.25 28.1158 346.902 28.2298 346.651 28.1181C346.611 28.0047 346.535 27.8371 346.63 27.742C347.152 27.7226 347.654 27.6458 348.077 27.3825C348.271 27.3831 348.329 27.6612 348.368 27.8321V27.8321ZM352.487 28.2867C352.181 28.6451 351.853 28.9642 351.702 29.3961C351.511 29.4708 351.39 29.2275 351.275 29.1163C351.14 28.9283 350.907 28.6877 351.042 28.4239C351.466 28.2718 351.988 28.2707 352.449 28.2502L352.487 28.2867V28.2867ZM356.556 28.4211C356.284 28.7032 356.17 29.0781 356.095 29.4354C355.876 29.4089 355.668 29.3302 355.489 29.2064C355.31 29.0827 355.166 28.9179 355.071 28.727C355.047 28.5218 354.973 28.4643 355.106 28.2961L356.457 28.3277L356.556 28.4211ZM359.721 28.6357L359.779 28.7458C359.281 29.5355 358.839 30.3435 358.668 31.2455C358.224 31.4518 357.569 31.3793 357.199 31.1377C356.852 30.9325 356.601 30.5393 356.503 30.1654C356.465 29.9869 356.471 29.8022 356.52 29.6263C356.57 29.4504 356.662 29.288 356.788 29.1523C357.424 28.4361 358.755 28.3022 359.721 28.6357V28.6357ZM350.229 28.6517C350.502 28.8182 350.426 29.2136 350.658 29.4371C350.814 29.624 350.96 29.7534 351.174 29.8834L351.122 29.9796C350.524 30.281 349.929 30.6582 349.622 31.2975C349.238 31.3915 348.868 31.1288 348.618 30.8689C348.194 30.4021 348.304 29.765 348.517 29.2208C348.764 28.5268 349.592 28.5799 350.229 28.6517ZM354.279 28.7861C354.493 29.254 354.862 29.4398 355.17 29.7584L355.151 29.8889C354.398 30.0598 353.9 30.8125 353.668 31.4496C353.44 31.5436 353.11 31.376 352.879 31.2466C352.24 30.8932 352.238 30.1599 352.33 29.5045C352.428 29.1478 352.733 28.8088 353.101 28.7148C353.465 28.6014 353.97 28.5981 354.279 28.7861V28.7861ZM348.072 28.7513C347.974 29.0516 347.801 29.3359 347.648 29.5775C347.225 29.6356 346.972 29.3193 346.797 28.9814C346.758 28.832 346.93 28.832 347.028 28.7944C347.357 28.7557 347.741 28.6977 348.072 28.7513V28.7513ZM362.406 29.2645L362.482 29.3563C362.157 29.5455 361.653 29.5466 361.461 29.9796C361.213 30.3922 361.331 30.9159 361.563 31.3091C361.797 31.5912 362.242 31.7941 362.705 31.7377C363.168 31.6404 363.551 31.2278 363.687 30.8152C363.741 30.4585 363.663 30.083 363.45 29.8032C363.489 29.6533 363.623 29.7457 363.721 29.7457C365.189 30.3407 366.407 30.9933 367.451 32.1132C367.551 32.3571 367.223 32.4705 367.03 32.5452C366.123 32.867 365.236 33.2453 364.333 33.5484C364.1 33.4737 364.139 33.1928 363.925 33.0816C363.676 33.2503 363.02 33.1408 363.175 33.5893C363.27 33.852 363.408 34.1512 363.64 34.3C364.413 34.1291 365.126 33.826 365.877 33.5816C366.416 33.4477 366.898 33.0888 367.379 32.8449L367.554 32.8803L367.497 33.0877C366.109 33.9173 364.546 34.4283 362.947 34.7706C361.769 34.9432 360.535 34.6854 359.876 33.8083C359.061 33.0219 358.806 31.5995 359.285 30.5277C359.552 29.9088 359.878 29.2706 360.377 28.7618C361.11 28.7989 361.767 29.0212 362.406 29.2645V29.2645ZM346.523 29.6931C346.753 29.8983 346.967 30.0659 347.198 30.2157C346.756 30.4978 346.257 30.8186 346.083 31.3628C345.584 31.4396 345.079 31.084 344.789 30.6726C344.555 30.224 344.727 29.6605 344.976 29.2662C345.285 29.1528 345.613 29.1346 345.96 29.113C346.309 29.1124 346.289 29.5432 346.523 29.6931V29.6931ZM335.607 30.9303C335.763 31.3052 335.377 31.6249 335.322 32.0021C335.131 32.7127 335.385 33.4428 335.831 33.967V34.0599C334.445 34.8342 332.939 35.3281 331.319 35.5581L331.222 35.4824C331.586 34.4498 332.298 33.5489 332.833 32.59C332.484 31.9916 331.844 31.4689 331.417 30.8888L330.448 29.4498C330.409 29.3558 330.486 29.2618 330.582 29.2618C332.341 29.6489 334.039 30.1284 335.607 30.9303V30.9303ZM343.46 30.1394C343.365 30.364 343.036 30.3457 342.903 30.5349C342.498 30.818 342.305 31.2671 342.307 31.7543C341.959 31.8312 341.69 31.4949 341.476 31.251C341.321 30.9518 341.183 30.5597 341.299 30.203C341.645 29.9403 342.148 29.9752 342.533 29.8054C342.919 29.598 343.21 30.0089 343.46 30.1394V30.1394Z" fill="white"/>
<path fill-rule="evenodd" clip-rule="evenodd" d="M363.027 30.1427C363.125 30.3355 363.046 30.5484 363.011 30.7224C362.855 30.9552 362.642 31.0904 362.372 31.0733C362.065 31.1121 361.925 30.8605 361.791 30.6864C361.714 30.4759 361.71 30.1661 361.884 30.0097C361.982 29.895 362.157 29.875 362.309 29.7969C362.6 29.7974 362.931 29.8722 363.027 30.1427V30.1427ZM356.439 31.0922L357.043 31.6896C356.365 31.9224 355.71 32.6037 355.441 33.281C354.974 33.1851 354.472 32.9757 354.256 32.4907C354.077 31.9515 354.019 31.3329 354.386 30.8456C354.752 30.4011 355.372 30.2636 355.933 30.3384C356.148 30.5518 356.245 30.8593 356.439 31.0922ZM340.621 30.824C340.759 31.3078 341.186 31.7312 341.477 32.117C340.957 32.3891 340.531 32.7777 340.416 33.3985C340.283 33.6102 340.108 33.3985 339.952 33.3985C339.486 33.1486 339.039 32.6687 339.057 32.0279C338.995 31.4105 339.382 30.9626 339.865 30.634C340.135 30.5541 340.599 30.3589 340.621 30.824ZM351.907 31.1081C352.199 31.4357 352.512 31.6856 352.86 31.9161L352.841 32.0142C352.395 32.2864 351.738 32.695 351.702 33.2935C351.336 33.5098 350.869 33.3169 350.599 33.1052C350.171 32.7007 349.858 32.0239 350.09 31.3466C350.243 30.7646 350.9 30.57 351.441 30.4907C351.731 30.5484 351.715 30.9153 351.907 31.1081V31.1081ZM344.009 30.5215C344.05 31.0819 344.592 31.5435 345.079 31.7352L345.135 31.8134C344.576 32.2037 344.172 32.8987 343.866 33.5206C343.361 33.3666 342.759 33.0014 342.66 32.4028C342.562 31.9395 342.715 31.4357 342.985 31.0676C343.275 30.7355 343.621 30.5421 344.009 30.5215ZM338.936 30.5398C338.82 30.9078 338.628 31.2576 338.417 31.5663C338.048 31.5298 337.756 31.2787 337.619 30.9877L337.638 30.8348C338.085 30.7355 338.51 30.6368 338.936 30.5398V30.5398ZM348.19 31.3529C348.345 31.5846 348.694 31.6616 348.851 31.8899C348.386 32.2408 347.827 32.7834 347.656 33.4042C347.403 33.4824 347.152 33.2719 346.921 33.1749C346.568 32.885 346.431 32.4228 346.392 32.0171C346.37 31.4362 346.738 30.8947 347.258 30.6585C347.857 30.2522 347.88 31.1606 348.19 31.3529ZM337.389 31.6473C337.545 31.859 337.798 31.9372 337.973 32.109C337.818 32.3418 337.468 32.3823 337.297 32.614C337.006 32.8861 336.93 33.2724 336.738 33.6228C336.35 33.7786 336.119 33.354 335.884 33.1806C335.611 32.7572 335.416 32.1386 335.686 31.6559C335.857 31.325 336.186 31.0128 336.536 30.974C337.038 30.8183 337.097 31.4157 337.389 31.6473V31.6473ZM346.048 33.1589C346.242 33.5075 346.63 33.7004 346.921 33.9303C346.805 34.1631 346.515 34.1455 346.38 34.3572C346.11 34.4941 346.073 34.9397 345.723 34.9409C345.318 34.9021 344.872 34.8838 344.715 34.4793C344.442 33.94 344.575 33.2422 344.942 32.7766C345.153 32.6014 345.348 32.3498 345.675 32.3686C345.872 32.5991 345.854 32.9278 346.048 33.1589V33.1589ZM349.608 32.6237C349.824 33.378 350.388 33.7238 351.045 34.0701C350.564 34.3988 350.197 34.8079 349.83 35.2929C349.211 35.2564 348.648 34.9306 348.396 34.3703C348.217 33.7706 348.293 33.1532 348.795 32.7241C349.009 32.5489 349.51 32.0844 349.608 32.6237V32.6237ZM358.458 32.5923L358.812 33.7723V33.964C358.096 34.3338 357.285 34.5124 356.608 34.9403L356.414 34.9015C356.141 34.3988 355.886 33.7044 356.176 33.1241C356.387 32.8131 356.599 32.4456 356.967 32.3652C357.527 32.307 357.995 32.4587 358.458 32.5923ZM353.909 33.1509C354.182 33.4208 354.474 33.6525 354.823 33.8253C354.379 34.251 353.857 34.6989 353.744 35.3768C353.668 35.5497 353.453 35.435 353.337 35.3979C352.89 35.2051 352.425 35.0133 352.268 34.55C352.056 33.9315 352.266 33.273 352.728 32.8462C352.938 32.651 353.25 32.4975 353.56 32.5164L353.909 33.1509V33.1509ZM338.809 33.1697C338.848 33.3626 339.237 33.4972 338.928 33.6724L337.513 33.6388C337.396 33.5041 337.494 33.2719 337.607 33.1172C337.858 32.8251 338.187 32.5546 338.555 32.5723C338.653 32.7652 338.711 32.9757 338.809 33.1697ZM342.489 33.3301C342.723 33.6211 342.956 33.7358 343.228 33.9098C343.19 34.1797 342.841 34.2196 342.628 34.3366C342.066 34.2019 341.485 34.1472 341 33.8573C340.959 33.4339 341.092 33.0259 341.442 32.8131C341.635 32.6391 341.905 32.5409 342.137 32.6168L342.489 33.3301V33.3301ZM355.816 35.0396C355.91 35.1355 356.183 35.2313 356.01 35.4464C355.817 36.0838 355.022 35.6804 354.519 35.7996C354.227 35.5691 354.479 35.1412 354.555 34.869C354.709 34.5791 354.96 34.3651 355.289 34.3075C355.676 34.3623 355.561 34.8473 355.816 35.0396V35.0396ZM343.931 35.1469C343.954 35.5537 343.485 35.637 343.201 35.8624L342.67 35.8247C341.691 35.5229 340.589 35.4059 339.649 35.0213C339.526 34.9614 339.588 34.7959 339.607 34.7161C340.441 34.0405 341.402 34.8108 342.28 34.9101L343.931 35.1469V35.1469ZM348.193 35.0687L348.175 35.2439C347.689 35.225 347.165 35.1315 346.718 34.9574C346.816 34.6476 347.183 34.6276 347.454 34.5295C347.858 34.4325 348.015 34.837 348.193 35.0687ZM351.504 34.4467C351.749 34.8336 352.035 35.1988 352.281 35.5257L352.221 35.5857L350.692 35.5503C350.55 35.225 350.912 34.8781 351.097 34.6522C351.219 34.5506 351.319 34.4091 351.504 34.4467V34.4467ZM359.386 34.6419C359.347 35.071 358.999 35.3363 358.736 35.6427C358.247 36.1329 357.72 36.6025 357.067 36.8307C356.823 36.8707 356.62 36.6881 356.556 36.4855C356.634 35.1212 358.225 35.0345 359.181 34.643L359.386 34.6419V34.6419Z" fill="white"/>
<path fill-rule="evenodd" clip-rule="evenodd" d="M393.555 25.5483C393.929 25.9234 394.116 26.3768 394.116 26.9098C394.116 27.4466 393.929 27.9052 393.555 28.2816C393.38 28.4642 393.168 28.6089 392.933 28.7065C392.698 28.8042 392.446 28.8526 392.191 28.8488C391.936 28.8531 391.683 28.8049 391.448 28.7072C391.213 28.6096 391.001 28.4646 390.826 28.2816C390.644 28.1018 390.501 27.8876 390.404 27.652C390.308 27.4163 390.26 27.1639 390.265 26.9098C390.265 26.3768 390.454 25.9234 390.827 25.5483C391.002 25.3654 391.214 25.2206 391.449 25.1229C391.683 25.0253 391.936 24.977 392.191 24.9811C392.724 24.9811 393.177 25.168 393.555 25.5483ZM393.78 25.3297C393.337 24.895 392.811 24.6777 392.19 24.6777C391.572 24.6777 391.046 24.895 390.608 25.3297C390.172 25.7695 389.953 26.296 389.953 26.9098C389.953 27.5313 390.168 28.0604 390.604 28.4989C391.041 28.9374 391.565 29.1573 392.19 29.1573C392.811 29.1573 393.337 28.9374 393.78 28.4989C394.217 28.0591 394.433 27.5287 394.433 26.9098C394.433 26.2934 394.217 25.7656 393.78 25.3297ZM392.522 26.805C392.431 26.8432 392.294 26.8606 392.111 26.8606H391.717V25.9713H392.089C392.328 25.9713 392.502 26.0004 392.612 26.0625C392.718 26.1246 392.775 26.2429 392.775 26.4227C392.776 26.6116 392.692 26.7384 392.522 26.805ZM391.286 28.1328H391.718V27.1627H392.06C392.292 27.1627 392.453 27.1892 392.542 27.2435C392.698 27.3347 392.775 27.5229 392.775 27.8069V28.0015L392.783 28.0811C392.785 28.0927 392.789 28.0999 392.79 28.1089C392.791 28.1167 392.795 28.1238 392.796 28.1328H393.202L393.188 28.1024C393.174 28.0613 393.167 28.0183 393.166 27.975C393.162 27.9137 393.159 27.8522 393.16 27.7907V27.6128C393.16 27.4867 393.114 27.3625 393.027 27.2299C392.936 27.1012 392.795 27.0217 392.599 26.99C392.753 26.9647 392.874 26.9266 392.961 26.871C393.12 26.7675 393.201 26.6045 393.201 26.3872C393.201 26.0774 393.075 25.8691 392.819 25.7643C392.679 25.7035 392.453 25.6757 392.146 25.6757H391.286V28.1328H391.286V28.1328Z" fill="black"/>
<path fill-rule="evenodd" clip-rule="evenodd" d="M314.13 10.6578V8.3479H314.538C315.397 8.3479 316.491 8.26256 316.491 9.46017C316.491 10.5719 315.525 10.6572 314.667 10.6572H314.13V10.6578ZM308.68 20.5823H316.684C319.516 20.5823 322.606 19.4478 322.606 16.1321C322.606 14.2079 321.49 12.9256 319.732 12.3043V12.1757C321.147 11.7257 321.855 10.338 321.855 8.92594C321.855 5.20396 318.658 4.45581 315.525 4.45581H308.68V20.5823V20.5823ZM314.13 14.0572H314.71C315.654 14.0572 317.155 14.0356 317.155 15.3839C317.155 16.7101 315.761 16.7312 314.795 16.7312H314.13V14.0572V14.0572ZM331.146 14.7416L332.219 9.82429H332.433C332.54 10.5087 332.647 11.2131 332.819 11.8986L333.504 14.7416H331.146V14.7416ZM330.094 18.5705H334.535L335.072 20.5823H341.294L335.523 4.45524H329.021L323.399 20.5817H329.622L330.094 18.5705V18.5705ZM342.86 4.45524H348.527V9.88801H352.131V4.45524H357.797V20.5823H352.131V14.9783H348.527V20.5823H342.86V4.45524V4.45524ZM372.772 10.9997C371.828 10.123 370.648 9.37483 369.317 9.37483C367.557 9.37483 366.121 10.7647 366.121 12.5176C366.121 14.2933 367.645 15.6621 369.404 15.6621C370.754 15.6621 371.828 15.0852 372.772 14.1641L372.601 20.196C371.655 20.6449 369.468 20.8378 368.417 20.8378C363.802 20.8378 360.198 17.2654 360.198 12.6673C360.198 7.96216 363.91 4.19922 368.65 4.19922C369.981 4.19922 371.355 4.43362 372.601 4.86317L372.772 10.9997V10.9997ZM383.564 9.50227C385.43 9.50227 386.592 10.9366 386.592 12.6462C386.592 14.485 385.346 15.7469 383.564 15.7469C381.784 15.7469 380.541 14.485 380.541 12.6462C380.541 10.9366 381.697 9.50227 383.564 9.50227ZM383.564 4.19979C378.65 4.19979 374.617 7.49449 374.617 12.5614C374.617 17.737 378.629 20.8378 383.564 20.8378C388.499 20.8378 392.512 17.7365 392.512 12.5614C392.512 7.49393 388.479 4.19979 383.564 4.19979V4.19979Z" fill="white"/>
<path fill-rule="evenodd" clip-rule="evenodd" d="M535.017 18.4099H541.048L540.783 19.3857L541.848 18.6318C542.159 18.4099 542.424 18.3658 542.646 18.4099H548.234C548.633 18.3658 549.122 18.6318 549.608 19.2079C550.097 19.784 550.097 20.538 549.519 21.4256C546.726 26.393 545.352 28.9657 545.352 29.364V30.2516H538.166C538.432 29.8085 538.698 29.4977 538.92 29.364L539.629 28.6549L543.888 21.2919C543.932 21.0259 543.932 20.804 543.888 20.804H540.251L535.55 29.098C535.284 29.4088 535.284 29.7189 535.417 30.1179H528.276L529.118 29.3199L529.783 28.5659L534.796 19.6517C535.061 19.2079 535.017 18.9419 535.017 18.4099V18.4099ZM523.309 20.9818H522.953L522.642 21.2919L521.889 22.3566H515.946L517.587 20.0059L518.607 19.2079C519.14 18.7641 519.716 18.587 520.204 18.587H531.647C532.312 18.72 532.666 18.986 532.71 19.385C532.799 20.0052 532.755 20.538 532.577 20.9811L528.143 28.4322L527.078 29.5403L526.146 30.1172L525.038 30.3391H513.949C513.284 30.3391 512.885 30.1172 512.708 29.7189C512.486 29.3192 512.442 28.9209 512.619 28.4329L513.506 26.6591L519.273 26.5253L518.873 27.5012C518.784 27.546 518.784 27.6349 518.962 27.7672C519.095 27.9009 519.228 27.9891 519.361 27.9891H522.155L522.642 27.7672L522.953 27.4571L526.236 21.735L526.369 21.203L526.015 20.9811H523.309V20.9818V20.9818Z" fill="white"/>
<path fill-rule="evenodd" clip-rule="evenodd" d="M509.336 25.8608L519.981 25.7718L521.311 23.1992H512.043L511.288 23.51C511.066 23.5541 510.889 23.732 510.668 23.998L509.336 25.8608V25.8608Z" fill="white"/>
<path fill-rule="evenodd" clip-rule="evenodd" d="M461.35 19.0315V19.0763L461.128 19.8302L456.072 28.7003L455.496 29.4991L454.609 30.3412H461.705C461.572 29.9422 461.572 29.5432 461.794 29.2331L466.583 20.9832H470.176C470.265 21.028 470.265 21.161 470.176 21.427L465.962 28.8333L465.297 29.5873C465.076 29.6762 464.81 29.9422 464.499 30.4749H471.64V29.5873C471.685 29.2331 473.059 26.5274 475.853 21.6041C476.385 20.7613 476.385 20.0073 475.942 19.4312C475.454 18.8544 474.966 18.5435 474.567 18.5884L469.023 18.6325C468.801 18.5884 468.491 18.6325 468.18 18.8544L467.027 19.5635L467.382 18.6317H461.351V19.0315H461.35ZM460.285 17.1687C459.886 17.0357 459.62 16.9468 459.531 16.9468H449.508C449.419 16.8579 449.286 16.8579 449.064 17.0805L448.133 18.4105C447.911 18.5884 447.911 18.7655 448.088 19.0756L448.576 19.3864L456.781 19.3416C457.269 19.4746 457.668 19.7406 458.023 20.2726C458.555 20.9384 458.643 21.6034 458.378 22.2243L454.829 28.2999C454.74 28.6989 454.341 29.1427 453.454 29.5417C453.144 29.6755 452.877 29.8526 452.567 30.0738L451.724 30.2075H437L439.484 25.728L440.46 26.26H447.068C447.246 26.26 447.512 26.3048 447.822 26.526L448.576 27.191C448.887 27.5018 449.241 27.6797 449.641 27.7679C450.306 27.9457 450.926 27.9457 451.459 27.7679C451.947 27.6348 452.257 27.4577 452.302 27.2366L450.927 26.7479C450.173 26.5708 449.818 26.1718 449.951 25.5061C450.04 24.7521 450.394 24.1312 450.927 23.7322L452.213 24.1312L453.056 24.3531C453.455 23.91 453.101 23.4221 451.903 22.8011C451.149 22.3573 450.528 22.3132 450.04 22.4462L449.552 22.6681L449.374 22.8452C448.989 23.0654 448.644 23.3505 448.355 23.6881H443.033C442.766 23.777 442.456 23.6433 442.057 23.2891C441.859 23.0956 441.72 22.8492 441.658 22.5792L441.836 21.7364C441.925 21.3374 443.211 18.9867 445.739 14.685C446.043 14.2801 446.419 13.9344 446.847 13.665C447.601 13.2219 448.178 13 448.577 13L463.612 13.0441L461.085 17.5684C460.95 17.4347 460.684 17.3017 460.285 17.1687V17.1687ZM510.18 19.1197C510.669 19.6524 510.758 20.3174 510.358 21.1155L506.454 27.8568C506.366 28.2999 505.835 28.8326 504.947 29.3646C504.016 29.8526 503.306 30.1627 502.818 30.2075H496.565C496.298 30.2075 496.211 30.1186 496.165 29.8966L495.943 29.3198L493.682 33.667C493.611 33.7359 493.555 33.8186 493.517 33.9099C493.479 34.0012 493.46 34.0994 493.46 34.1983L493.593 34.6863H487.118L495.5 19.8288L495.678 19.2079L495.589 18.5869L501.532 18.498L501.267 19.4739L502.065 18.9418C502.331 18.8529 502.597 18.7199 502.819 18.498H508.806C509.471 18.5876 509.869 18.7655 510.18 19.1197V19.1197ZM504.237 21.7364L500.866 27.5467L500.555 27.8127L500.068 28.0346L497.229 27.9898C497.096 27.9457 497.007 27.8127 497.007 27.6356C497.007 27.4129 497.096 27.2366 497.096 27.1476L500.466 21.5152L500.865 21.1162C500.982 21.0327 501.122 20.9864 501.265 20.9832L504.059 20.9391C504.237 20.8943 504.324 20.9832 504.37 21.1162L504.237 21.7364V21.7364ZM491.908 18.4987H480.066L478.203 21.4263L479.223 20.9824L480.021 20.8935L486.984 20.9384C487.295 21.0273 487.383 21.2044 487.206 21.5145L486.186 22.3125H479.489C478.557 22.4455 477.981 22.5785 477.671 22.9334L476.828 23.5992C476.448 23.8825 476.118 24.227 475.852 24.6184C475.453 25.2393 474.743 26.393 473.811 27.989C473.501 28.8319 473.545 29.4087 473.9 29.7196C474.255 30.0304 474.61 30.2075 474.965 30.2075L480.952 30.3405C481.484 30.2523 481.884 30.0745 482.194 29.7636L482.948 29.0986L482.726 30.2075L488.669 30.3405C488.537 30.097 488.49 29.8159 488.536 29.5425C488.625 29.2324 490.044 26.6604 492.794 21.6923C493.282 20.6723 493.415 20.0066 493.282 19.6524C492.928 18.8985 492.44 18.4987 491.908 18.4987V18.4987ZM481.973 24.974C481.796 24.974 481.618 25.0189 481.485 25.1511C481.307 25.2849 480.82 25.994 480.154 27.2799C480.021 27.5018 479.888 27.6349 479.932 27.723C480.021 27.9009 480.154 27.989 480.375 27.9457H483.347L485.21 24.974H481.973V24.974Z" fill="white"/>
<path fill-rule="evenodd" clip-rule="evenodd" d="M550.097 28.3013H548.989L548.722 29.4101H549.965L550.363 29.2764C550.42 29.2588 550.473 29.2302 550.518 29.1921C550.564 29.154 550.602 29.1072 550.63 29.0545L550.718 28.6995C550.718 28.5665 550.674 28.4776 550.63 28.4343C550.585 28.3453 550.541 28.3005 550.452 28.3005H550.097V28.3013V28.3013ZM550.672 27.9471C550.817 27.9942 550.942 28.0874 551.028 28.2123C551.072 28.3461 551.115 28.4784 551.115 28.7003C551.115 28.967 551.028 29.233 550.85 29.4101C550.672 29.5872 550.407 29.7209 550.007 29.7643L550.272 30.031L550.628 30.6961L550.85 31.317H550.361L550.139 30.6961C550.051 30.4741 549.963 30.2081 549.829 30.0751L549.607 29.8532C549.483 29.7931 549.346 29.7627 549.208 29.7643H548.631L548.32 31.317H547.877L548.587 27.8574H550.049C550.318 27.8581 550.54 27.9022 550.672 27.9471V27.9471Z" fill="white"/>
<path d="M549.653 26.9298H549.656C550.037 26.9298 550.395 26.9905 550.725 27.1163C551.064 27.2466 551.37 27.4466 551.626 27.7033L551.629 27.7054C551.759 27.8356 551.875 27.9758 551.977 28.1283C552.078 28.2779 552.164 28.4377 552.233 28.6068C552.371 28.943 552.444 29.3145 552.444 29.7193C552.444 30.1277 552.371 30.4776 552.233 30.7971C552.095 31.1137 551.893 31.3999 551.633 31.6833L551.626 31.6905C551.369 31.9529 551.062 32.1606 550.723 32.3014C550.384 32.4421 550.02 32.5129 549.653 32.5095H549.65C549.226 32.5075 548.809 32.4101 548.428 32.2247V32.2254C548.15 32.0897 547.896 31.9089 547.677 31.6905L547.67 31.6833C547.41 31.3999 547.208 31.1144 547.071 30.7971C546.927 30.4565 546.854 30.0894 546.86 29.7193V29.7157C546.86 29.3116 546.933 28.9408 547.07 28.6054C547.212 28.2684 547.419 27.9621 547.677 27.7033L547.68 27.7011V27.7004C547.827 27.5535 547.992 27.4257 548.172 27.3202V27.3209C548.621 27.0597 549.133 26.9247 549.653 26.9298V26.9298ZM549.656 27.365H549.653C549.213 27.365 548.773 27.4698 548.398 27.6932L548.396 27.6939C548.25 27.7829 548.115 27.8884 547.992 28.0083V28.0076L547.989 28.0098C547.77 28.226 547.595 28.4841 547.477 28.7688C547.361 29.0528 547.299 29.3687 547.299 29.7164V29.72C547.299 30.0648 547.36 30.359 547.476 30.6265C547.594 30.8968 547.769 31.1441 547.997 31.3927C548.182 31.5756 548.394 31.7245 548.622 31.8351V31.8365C548.942 31.9927 549.293 32.0743 549.649 32.0751H549.652C550.298 32.0751 550.864 31.8329 551.308 31.3905C551.535 31.1426 551.711 30.8961 551.828 30.6265C551.943 30.359 552.004 30.0648 552.004 29.72C552.004 29.3716 551.943 29.055 551.826 28.7709C551.769 28.6302 551.697 28.4957 551.612 28.3697C551.525 28.2411 551.425 28.1213 551.315 28.0119L551.314 28.0105C551.102 27.7969 550.848 27.6307 550.567 27.5226C550.276 27.4146 549.967 27.3612 549.656 27.365V27.365Z" fill="white"/>
<path fill-rule="evenodd" clip-rule="evenodd" d="M594.519 11.1509C592.511 11.5839 590.825 12.8784 589.97 14.6439C589.308 16.0091 589.278 16.2899 589.278 21.1268C589.278 25.6041 589.309 26.028 589.717 27.047C590.138 28.1014 590.571 28.7268 591.539 29.6808C592.553 30.6792 593.372 31.2096 594.579 31.6485L595.256 31.8948H603.458H611.66L612.293 31.6774C613.715 31.1888 614.958 30.0538 615.685 28.5815C616.203 27.5319 616.436 26.5745 616.499 25.2297L616.553 24.0996H613.388H610.224V24.4109C610.224 25.1948 609.716 25.9966 608.993 26.3553L608.519 26.5904L603.741 26.5884C599.317 26.5865 598.936 26.5739 598.592 26.4182C598.041 26.1678 597.64 25.7926 597.36 25.2638L597.109 24.7915V21.4705C597.109 18.297 597.118 18.1309 597.303 17.7333C597.536 17.2319 597.969 16.7844 598.487 16.5084C598.869 16.3054 598.892 16.3044 603.743 16.3044H608.616L609.072 16.5839C609.653 16.9393 610.106 17.5985 610.187 18.2027L610.248 18.6568H613.387H616.526L616.524 17.7113C616.522 16.5149 616.343 15.671 615.893 14.7362C615.068 13.024 613.532 11.7889 611.521 11.2213C610.96 11.0629 610.381 11.0499 603.041 11.0316C596.321 11.0149 595.069 11.0325 594.519 11.1509ZM618.379 21.5656V32.1312L629.339 32.1015C641.617 32.0682 640.698 32.1194 642.282 31.3804C644.534 30.3298 646.127 28.3517 646.709 25.8811C646.86 25.2408 646.878 24.7288 646.874 21.286C646.869 17.5732 646.86 17.3806 646.663 16.6734C645.841 13.7274 643.561 11.6591 640.563 11.1386C639.883 11.0207 638.167 11 629.072 11H618.379V21.5656ZM648.686 21.5627V32.1255H651.605H654.525V21.5627V11H651.605H648.686V21.5627ZM673.107 11.1387C672.75 11.2121 672.375 11.3098 672.273 11.3558C672.171 11.4018 671.792 11.5489 671.432 11.6827C670.404 12.064 669.394 12.7423 668.276 13.8011C667.456 14.5777 667.178 14.9091 666.897 15.4467C666.703 15.817 666.466 16.2333 666.369 16.3718C665.806 17.1751 665.518 18.8624 665.733 20.0923C665.856 20.7981 665.985 21.0792 666.5 21.7736C667.261 22.7994 668.118 23.1842 669.782 23.2479C671.597 23.3173 672.825 22.9818 674.654 21.9178C676.133 21.0565 677.813 19.1083 678.507 17.4479C678.987 16.3018 679.135 14.7419 678.854 13.8005C678.651 13.1208 678.07 12.286 677.518 11.8828C676.519 11.1532 674.605 10.8303 673.107 11.1387ZM697.574 11.1405C694.739 11.6817 691.725 14.1228 690.652 16.7467C690.216 17.8133 690.081 18.5756 690.144 19.6054C690.218 20.8192 690.484 21.4147 691.284 22.16C691.775 22.6173 691.997 22.7494 692.638 22.9651C693.344 23.2033 693.507 23.2226 694.747 23.2146C695.878 23.2073 696.185 23.1735 696.681 23.0024C697.006 22.8905 697.281 22.8113 697.292 22.8266C697.303 22.8418 697.449 23.1967 697.616 23.6153L697.919 24.3764H699.295H700.671L700.545 24.0304C700.475 23.8402 700.232 23.1983 700.003 22.6042L699.588 21.524L699.83 21.3661C700.663 20.8226 702.198 19.0417 702.707 18.0284C703.316 16.8141 703.413 16.4292 703.41 15.2435C703.406 13.7137 703.189 13.1026 702.359 12.2869C701.648 11.5874 701.189 11.3448 700.196 11.1443C699.346 10.9725 698.461 10.9712 697.574 11.1405ZM658.471 12.6375C658.22 13.3351 657.997 13.9578 657.974 14.0212C657.943 14.11 658.235 14.1365 659.241 14.1365C659.96 14.1365 660.549 14.1534 660.549 14.174C660.549 14.1946 659.84 16.1561 658.973 18.5328C658.107 20.9096 657.398 22.8863 657.398 22.9256C657.398 22.9649 658.116 22.9856 658.993 22.9718L660.589 22.9465L662.249 18.5415L663.909 14.1365H665.183H666.457L666.661 13.6659C666.961 12.9711 667.5 11.5506 667.5 11.4533C667.5 11.4036 665.741 11.369 663.213 11.369H658.927L658.471 12.6375ZM680.716 16.6981C679.651 19.6273 678.681 22.2198 678.561 22.4591C678.441 22.6984 678.343 22.9163 678.343 22.9435C678.343 22.9705 679.042 22.9922 679.896 22.9916L681.448 22.9906L682.235 20.8304C682.668 19.6424 683.031 18.6797 683.043 18.6912C683.063 18.711 683.997 22.891 683.997 22.9601C683.997 22.978 684.831 22.9926 685.85 22.9926C687.272 22.9926 687.704 22.9658 687.703 22.8773C687.702 22.8139 687.395 21.7752 687.019 20.5691C686.644 19.363 686.363 18.3618 686.395 18.3441C686.427 18.3265 686.619 18.2594 686.823 18.1951C687.531 17.9718 688.078 17.6358 688.731 17.0227C689.29 16.4978 689.455 16.2644 689.847 15.4501C690.601 13.8824 690.559 12.8169 689.712 12.0065C689.086 11.4078 688.829 11.3687 685.532 11.3706L682.653 11.3722L680.716 16.6981ZM706.946 11.4439C706.92 11.4851 706.567 12.4503 706.161 13.5887C705.755 14.7272 705.226 16.1776 704.986 16.8118C704.517 18.047 703.923 20.2353 703.923 20.7242C703.923 21.3542 704.2 22.0053 704.654 22.4438C705.27 23.039 705.819 23.1862 707.63 23.2422C710.246 23.323 711.697 22.8496 713.058 21.4712C714.045 20.4718 714.399 19.774 715.632 16.3967C716.168 14.9253 716.819 13.2053 717.077 12.5745C717.335 11.9437 717.547 11.4145 717.547 11.3983C717.547 11.3822 716.804 11.369 715.895 11.369H714.244L713.263 14.0212C711.344 19.2088 711.143 19.6316 710.352 20.1309C709.608 20.6006 708.653 20.6889 707.98 20.3502C707.424 20.0702 707.393 19.4292 707.869 18.131C708.584 16.1851 710.225 11.5336 710.225 11.4535C710.225 11.3487 707.011 11.3393 706.946 11.4439ZM719.816 11.4843C719.793 11.5478 719.082 13.4262 718.235 15.6587C716.731 19.6202 715.6 22.7325 715.6 22.9076C715.6 22.9613 716.994 22.9855 719.225 22.9707L722.849 22.9465L723.257 21.7944C723.482 21.1607 723.688 20.5691 723.717 20.4798C723.765 20.3281 723.636 20.3173 721.776 20.3173H719.784L720.087 19.4179L720.39 18.5185L722.341 18.4935L724.292 18.4687L724.719 17.222C724.954 16.5363 725.146 15.956 725.146 15.9323C725.146 15.9087 724.289 15.8893 723.24 15.8893C721.467 15.8893 721.338 15.878 721.386 15.7279C721.415 15.6391 721.577 15.2136 721.747 14.7823L722.055 13.9982L724.101 13.9733C725.94 13.951 726.154 13.9324 726.213 13.7888C726.343 13.472 727 11.5143 727 11.4425C727 11.4021 725.393 11.369 723.429 11.369C720.656 11.369 719.849 11.3947 719.816 11.4843ZM698.975 13.944C699.87 14.3486 700.247 15.4921 699.904 16.7657C699.747 17.3471 699.283 18.238 698.922 18.6506L698.645 18.9672L698.502 18.6275L698.359 18.2878H696.924C696.135 18.2878 695.489 18.3025 695.489 18.3203C695.489 18.3382 695.678 18.8019 695.909 19.3508C696.354 20.407 696.353 20.4344 695.868 20.5624C695.481 20.6648 694.557 20.4378 694.204 20.1534C693.395 19.5017 693.283 18.5338 693.855 17.1347C694.276 16.1044 694.712 15.4635 695.385 14.8866C695.992 14.3663 696.139 14.2829 696.961 13.9917C697.714 13.7251 698.452 13.7076 698.975 13.944ZM674.675 14.1321C675.165 14.4335 675.535 14.9775 675.604 15.4995C675.731 16.4541 674.987 18.2066 674.052 19.1553C673.121 20.0999 671.661 20.6982 670.671 20.5405C669.704 20.3866 669.075 19.6009 669.075 18.5472C669.075 17.534 669.664 16.1897 670.521 15.245C670.98 14.7396 671.283 14.5346 672.123 14.1633C672.771 13.8762 672.89 13.8535 673.577 13.884C674.16 13.9099 674.403 13.9649 674.675 14.1321ZM686.341 13.9581C686.763 14.0747 686.909 14.3682 686.817 14.9165C686.668 15.8095 686.182 16.3332 685.234 16.6249C684.538 16.8388 683.671 16.8805 683.745 16.6965C683.771 16.6331 684.031 15.9689 684.324 15.2205L684.857 13.8598L685.423 13.8603C685.734 13.8606 686.148 13.9046 686.341 13.9581ZM639.001 16.5628C639.464 16.7704 639.936 17.2149 640.167 17.6614C640.332 17.9803 640.344 18.2334 640.342 21.3515C640.341 24.4477 640.327 24.7284 640.163 25.0875C639.945 25.5674 639.29 26.2304 638.755 26.5149L638.352 26.7288L631.702 26.7548L625.052 26.7807V21.5628V16.3448L631.841 16.3708C638.147 16.3948 638.656 16.4085 639.001 16.5628ZM677.156 26.4965C675.781 26.8796 674.507 28.212 674.175 29.6149C673.878 30.8703 674.54 31.8398 675.86 32.0815C676.076 32.1211 676.487 32.0815 676.972 31.9739C678.355 31.6673 679.73 30.5089 680.202 29.2528C680.537 28.3606 680.371 27.3231 679.809 26.8011C679.286 26.3147 678.24 26.1946 677.156 26.4965ZM705.766 26.4421C705.046 26.6486 704.387 27.0669 703.869 27.6461C703.193 28.4011 702.91 28.9575 702.757 29.8294C702.614 30.647 702.693 31.0093 703.116 31.4676C703.41 31.7861 704.187 32.1241 704.618 32.1213C704.963 32.1191 705.823 31.9444 706.152 31.8096C706.28 31.7574 706.796 30.3974 706.796 30.1141C706.796 30.0541 706.605 30.1499 706.372 30.3272C706.009 30.6025 705.875 30.6494 705.452 30.6494C704.823 30.6494 704.689 30.5952 704.522 30.2738C704.341 29.9251 704.351 29.6396 704.562 29.1485C704.936 28.2816 705.699 27.7036 706.477 27.6994C706.855 27.6974 707.14 27.8714 707.34 28.2256C707.469 28.4556 707.518 28.3729 707.813 27.428L708.076 26.5875L707.876 26.4799C707.583 26.3222 706.266 26.2987 705.766 26.4421ZM720.804 26.4999C719.869 26.9224 719.254 27.6667 719.155 28.4955C719.085 29.0844 719.252 29.2844 720.095 29.6223C720.579 29.816 720.752 29.9318 720.773 30.0766C720.82 30.3919 720.627 30.6355 720.238 30.7517C719.78 30.8881 719.389 30.7485 719.142 30.3611L718.972 30.0929L718.398 30.6096C718.083 30.8937 717.825 31.1813 717.825 31.2486C717.825 31.4613 718.374 31.8416 718.902 31.9943C719.89 32.2802 721.041 31.8928 721.863 30.9983C722.234 30.5941 722.356 30.3795 722.448 29.9676C722.553 29.5037 722.547 29.4101 722.396 29.1029C722.263 28.8322 722.138 28.7286 721.81 28.6199C721.581 28.5438 721.379 28.4505 721.362 28.4124C721.345 28.3743 721.256 28.3432 721.165 28.3432C720.951 28.3432 720.766 28.1211 720.807 27.9117C720.884 27.5149 721.807 27.4068 722.188 27.75C722.357 27.9028 722.375 27.902 722.562 27.7348C722.669 27.6381 722.882 27.4024 723.035 27.2109C723.266 26.9203 723.292 26.8394 723.194 26.7213C722.838 26.2942 721.528 26.1729 720.804 26.4999ZM658.29 28.1827C657.94 29.1589 657.493 30.4038 657.297 30.9493L656.94 31.941H657.668H658.397L658.708 31.0415L659.019 30.1421L659.9 30.0959C660.638 30.0573 660.855 30.0083 661.244 29.793C662.428 29.1367 662.996 27.3354 662.204 26.7501C661.862 26.4981 661.329 26.4145 660.039 26.4108L658.927 26.4077L658.29 28.1827ZM667.178 26.5101C666.367 28.7294 665.275 31.8015 665.275 31.8646C665.275 31.9109 665.595 31.9366 665.986 31.9218L666.696 31.8948L667.003 30.9821C667.172 30.4801 667.326 30.0531 667.346 30.0332C667.366 30.0133 667.453 30.2788 667.539 30.6231C667.624 30.9673 667.736 31.4048 667.786 31.595L667.878 31.941H668.754C669.237 31.941 669.631 31.9253 669.631 31.9062C669.631 31.8783 669.361 30.9859 669.024 29.8991C668.991 29.7942 669.05 29.73 669.219 29.6878C670.268 29.4258 671.118 27.9521 670.742 27.0483C670.541 26.565 670.215 26.4684 668.636 26.4236C667.497 26.3913 667.216 26.408 667.178 26.5101ZM684.46 29.0823C683.925 30.5654 683.473 31.8153 683.456 31.8599C683.439 31.9045 684.068 31.941 684.855 31.941C686.36 31.941 686.768 31.8628 687.68 31.3995C688.618 30.9231 689.459 29.6863 689.663 28.4801C689.768 27.8639 689.762 27.8109 689.545 27.3775C689.364 27.0157 689.223 26.8752 688.858 26.6936C688.441 26.4859 688.264 26.4615 686.916 26.4255L685.433 26.3858L684.46 29.0823ZM694.271 27.583C693.219 30.4592 693.09 31.1254 693.5 31.5758C693.769 31.8718 694.461 32.0796 695.165 32.0759C696.768 32.0676 697.926 31.2976 698.361 29.9518C698.425 29.752 698.744 28.8938 699.069 28.0446C699.394 27.1956 699.66 26.4794 699.66 26.4533C699.66 26.4272 699.313 26.4059 698.89 26.4059H698.121L697.905 26.9825C697.787 27.2996 697.506 28.0732 697.282 28.7018C696.73 30.2488 696.316 30.7601 695.614 30.7601C695.224 30.7601 695.026 30.606 695.026 30.3019C695.026 30.174 695.297 29.2831 695.628 28.3223C695.959 27.3615 696.23 26.5373 696.23 26.4907C696.23 26.4441 695.886 26.4063 695.466 26.4068L694.701 26.4077L694.271 27.583ZM711.726 27.0351C711.614 27.3812 711.522 27.6925 711.522 27.727C711.522 27.7614 711.773 27.7897 712.079 27.7897C712.384 27.7897 712.635 27.8174 712.635 27.8513C712.635 27.9019 711.416 31.2296 711.196 31.7795C711.138 31.9256 711.207 31.941 711.92 31.941H712.707L713.143 30.7648C713.382 30.1179 713.725 29.1839 713.905 28.6891L714.232 27.7897H714.852H715.471L715.675 27.1604C715.787 26.8144 715.878 26.503 715.878 26.4685C715.878 26.4341 714.99 26.4059 713.904 26.4059H711.93L711.726 27.0351ZM660.863 27.8957C661.161 28.3192 660.574 28.8507 659.878 28.7876L659.554 28.7583L659.785 28.2279C660.009 27.7149 660.028 27.6974 660.37 27.6974C660.627 27.6974 660.762 27.7518 660.863 27.8957ZM669.109 27.9C669.182 28.0165 669.166 28.1415 669.048 28.3894C668.891 28.7163 668.62 28.8859 668.033 29.0245L667.778 29.0846L668.007 28.4779C668.134 28.1441 668.263 27.8297 668.294 27.7791C668.384 27.6345 668.999 27.7257 669.109 27.9ZM678.443 27.9671C678.79 28.3121 678.799 28.7288 678.476 29.4087C678.204 29.9803 677.644 30.4853 677.051 30.6937C676.561 30.8659 676.278 30.801 675.98 30.4478C675.526 29.9112 675.77 28.9363 676.521 28.2866C677.287 27.6238 677.982 27.5082 678.443 27.9671ZM687.673 27.8951C687.748 27.9566 687.869 28.1232 687.943 28.2655C688.064 28.4979 688.059 28.5777 687.891 29.0532C687.545 30.0328 686.941 30.5421 686.02 30.6302L685.572 30.673L686 29.485C686.236 28.8316 686.474 28.1574 686.529 27.9866C686.629 27.6787 686.633 27.6766 687.084 27.7297C687.334 27.7592 687.599 27.8336 687.673 27.8951ZM724.405 28.4466C723.451 28.8241 723.002 30.1639 723.509 31.1193C724.141 32.3111 725.95 32.4038 726.695 31.2827C727.038 30.766 727.101 29.9149 726.833 29.3965C726.608 28.9615 726.214 28.5749 725.859 28.4413C725.537 28.3202 724.717 28.3232 724.405 28.4466ZM725.957 28.9724C726.523 29.3737 726.73 30.3483 726.377 30.9504C725.81 31.9162 724.449 31.9036 723.928 30.9277C723.551 30.2223 723.786 29.3969 724.5 28.9137C724.896 28.6456 725.532 28.6711 725.957 28.9724ZM724.405 30.2343V31.2952H724.637C724.849 31.2952 724.868 31.2613 724.868 30.8801C724.868 30.5354 724.898 30.4649 725.042 30.4649C725.264 30.4649 725.386 30.6177 725.467 30.9954C725.519 31.2352 725.578 31.2952 725.76 31.2952C725.974 31.2952 725.985 31.2724 725.926 30.9493C725.892 30.759 725.824 30.528 725.777 30.436C725.718 30.3236 725.727 30.2241 725.803 30.1329C725.967 29.9363 725.927 29.4302 725.737 29.2916C725.645 29.2251 725.319 29.1734 724.99 29.1734H724.405V30.2343ZM725.372 29.5951C725.563 29.7862 725.555 29.8847 725.338 30.0005C724.998 30.1816 724.868 30.1189 724.868 29.7731C724.868 29.5157 724.905 29.4502 725.047 29.4502C725.145 29.4502 725.291 29.5154 725.372 29.5951ZM589 34.7546V36H657.954H726.907V34.7546V33.5092H657.954H589V34.7546Z" fill="white"/>
<path fill-rule="evenodd" clip-rule="evenodd" d="M804.929 0.0654204C796.29 0.656334 788.828 2.14104 781.494 4.72843C774.79 7.09324 770.494 9.98069 766.665 14.6952C764.492 17.3714 763.215 20.085 763.062 22.3535L763 23.2683H766.342C768.987 23.2683 769.668 23.241 769.606 23.1376C769.563 23.0658 769.417 22.8291 769.28 22.6118C769.039 22.2273 769.036 22.1865 769.145 21.0959C769.277 19.7658 769.306 19.5738 769.586 18.1454C770.106 15.4904 771.331 13.2651 772.807 12.2954C773.778 11.6572 774.217 11.5909 777.999 11.5109L781.424 11.4384L782.584 10.9854C786.928 9.28773 791.727 8.11908 798.025 7.22466C803.127 6.50024 806.545 6.23876 811.991 6.15637C817.7 6.07002 822.249 6.33473 826.59 7.00594C831.348 7.74176 837.259 9.77106 840.769 11.8737C841.267 12.1726 841.688 12.4004 841.703 12.38C841.718 12.3596 841.854 12.129 842.004 11.8676L842.279 11.3922L843.578 11.1004C844.293 10.9398 845.773 10.5992 846.868 10.3434C847.963 10.0875 848.896 9.89172 848.941 9.90824C848.986 9.92475 848.27 11.2519 847.351 12.8574L845.678 15.7765L846.076 16.2552C847.523 17.9967 848.641 20.1494 849.161 22.1967L849.406 23.1638H850.787C851.547 23.1638 853.465 23.195 855.048 23.2333L857.929 23.3027L857.864 22.4673C857.3 15.2134 850.918 8.7331 840.412 4.74642C835.826 3.00588 828.701 1.37459 822.22 0.580849C818.754 0.156378 816.578 0.0401202 811.464 0.00603702C808.624 -0.0127819 805.683 0.0138775 804.929 0.0654204ZM845.248 11.2505C843.454 11.6761 842.628 11.9175 842.535 12.0427C842.462 12.1418 841.422 14.0749 840.224 16.3387C839.026 18.6023 838.007 20.4166 837.961 20.3704C837.914 20.3242 837.595 19.5576 837.251 18.667C835.16 13.2533 835.324 13.629 835.085 13.6916C834.963 13.7235 833.892 13.968 832.703 14.2352C831.515 14.5023 830.524 14.7374 830.501 14.7574C830.479 14.7775 831.25 16.5087 832.214 18.6043C833.179 20.7001 833.968 22.4636 833.968 22.5231C833.968 22.5827 832.26 24.5978 830.172 27.0011C827.091 30.5484 826.411 31.3843 826.562 31.4419C826.664 31.4809 827.744 31.6119 828.961 31.733C830.179 31.8543 831.301 31.978 831.455 32.0081C831.716 32.059 831.905 31.8466 834.195 28.9277C835.549 27.2033 836.687 25.8244 836.725 25.8634C836.763 25.9024 836.89 26.2636 837.008 26.6662C838.392 31.4144 838.961 33.2714 839.063 33.3664C839.131 33.4289 840.3 33.7235 841.662 34.0209C843.025 34.3183 844.254 34.5924 844.394 34.6298C844.587 34.6812 844.636 34.6618 844.595 34.5503C844.566 34.4692 843.698 31.8858 842.667 28.8094L840.794 23.216L842.715 19.8704C843.772 18.0304 845.378 15.2344 846.285 13.6572C847.192 12.0799 847.95 10.7509 847.969 10.7037C848.016 10.5888 848.164 10.559 845.248 11.2505ZM776.101 12.0711C774.614 12.1321 774.551 12.1441 773.751 12.5229C771.592 13.5457 770.384 15.7834 769.841 19.7659C769.537 22.0044 769.538 22.0545 769.925 22.6144C770.343 23.219 771.14 23.8375 771.779 24.0537C772.089 24.1584 773.368 24.2866 775.468 24.4234C777.237 24.5385 778.787 24.6549 778.913 24.6823C779.274 24.7605 779.803 25.2592 780.014 25.7209C780.455 26.6849 780.119 27.65 779.048 28.4892C778.29 29.0841 777.409 29.3322 776.057 29.3322C774.714 29.3322 774.061 29.1531 773.569 28.6498C773.214 28.2874 773.202 28.2452 773.166 27.3401L773.129 26.4048H770.619H768.109L768.051 26.7968C768.019 27.0125 767.935 28.0416 767.866 29.0839L767.739 30.9787L768.022 31.4589C768.404 32.1055 769.265 32.9283 769.865 33.2218C770.354 33.4605 770.38 33.4619 774.573 33.4536C778.466 33.446 778.87 33.4282 779.843 33.2214C781.913 32.7816 783.224 31.8517 784.077 30.219C785.146 28.1745 785.673 25.0601 785.23 23.4094C785.037 22.6923 784.565 21.8498 784.17 21.5178C783.33 20.8134 782.606 20.6579 779.158 20.4426C776.042 20.248 775.566 20.0898 775.194 19.1244C774.873 18.2906 775.234 17.2863 776.127 16.5267L776.576 16.1451L778.741 16.1782C781.5 16.2203 781.477 16.2098 781.477 17.4232V18.2642L783.84 18.231C785.14 18.2126 786.227 18.1734 786.257 18.1437C786.287 18.1141 786.326 17.1967 786.345 16.105C786.378 14.1522 786.374 14.1127 786.115 13.6547C785.795 13.0901 785.17 12.6001 784.352 12.2742C783.766 12.0403 783.627 12.0307 780.686 12.0197C779.005 12.0134 776.942 12.0366 776.101 12.0711ZM826.804 15.109L825.279 15.1657L823.794 20.3486C822.85 23.6413 822.224 25.6499 822.076 25.8562C821.704 26.3739 821.22 26.6055 820.251 26.7299C819.3 26.8518 817.74 26.7839 817.404 26.6058C817.054 26.4198 816.788 25.8709 816.788 25.3329C816.787 24.9282 817.581 21.7538 818.998 16.4967L819.09 16.1551L816.71 16.1831L814.331 16.2112L813.936 17.5704C813.719 18.3179 813.249 19.9175 812.89 21.125C811.156 26.9655 811.185 26.8565 811.246 27.3307C811.38 28.3664 812.228 29.362 813.507 29.9872L814.199 30.3254L816.31 30.3806C819.518 30.4645 822.494 30.3335 823.241 30.0759C823.941 29.8345 824.584 29.4154 825.13 28.8452C825.866 28.0757 826.222 27.3634 826.741 25.6207C827.015 24.7006 827.5 23.0775 827.818 22.0137C829.427 16.6297 829.857 15.1697 829.857 15.0928C829.857 15.0072 829.492 15.0092 826.804 15.109ZM789.451 15.5055C789.403 15.5846 788.859 17.8324 787.75 22.5365C787.418 23.9453 786.917 26.0624 786.637 27.2412C785.848 30.5538 785.564 31.8532 785.618 31.9064C785.645 31.9333 786.725 31.7523 788.018 31.5043L790.369 31.0533L791.02 28.3892C793.084 19.9425 794.125 15.634 794.125 15.537C794.125 15.4091 789.53 15.3783 789.451 15.5055ZM799.77 16.2701C798.468 16.4861 796.759 17.7239 795.774 19.1634C795.062 20.205 794.279 22.7563 794.017 24.8888C793.723 27.2929 794.522 29.0544 796.315 29.9502C796.757 30.1713 796.841 30.1746 801.163 30.1457L805.562 30.1163L806.265 29.7662C808.766 28.5208 810.414 25.8528 810.799 22.4265C810.967 20.9217 810.821 19.4863 810.411 18.6273C810.031 17.8315 809.156 16.9559 808.394 16.61C807.895 16.3833 807.556 16.3205 806.464 16.2519C804.769 16.1455 800.45 16.1572 799.77 16.2701ZM805.035 20.1427C805.868 20.3683 806.563 21.166 806.563 21.8958C806.563 22.5495 806.233 23.8695 805.89 24.5857C805.458 25.4868 804.916 26.1073 804.303 26.4016C803.316 26.8758 800.145 26.8954 799.513 26.4313C799.09 26.1203 798.781 25.603 798.7 25.0686C798.613 24.4877 798.87 22.923 799.197 22.0587C799.546 21.1328 800.396 20.3231 801.225 20.127C801.744 20.0042 804.566 20.0158 805.035 20.1427ZM763.402 24.3105C763.299 24.477 763.523 26.2881 763.766 27.2412C764.06 28.3936 764.934 30.1843 765.784 31.3709C766.154 31.8884 767.05 32.9 767.774 33.6189C774.333 40.1258 784.172 44.4023 796.621 46.1574C800.984 46.7725 804.585 47.0014 809.881 47C816.835 46.9983 822.009 46.5701 828.956 45.4216C833.664 44.6431 836.42 43.9059 840.323 42.381C843.625 41.0909 846.899 39.3469 849.453 37.5177C851.32 36.1809 854.217 33.1326 855.685 30.9594C857.08 28.894 858 26.4282 858 24.7535V24.2907L853.81 24.3668C851.506 24.4086 849.609 24.4521 849.596 24.4635C849.583 24.4748 849.503 24.8381 849.42 25.2706C849.094 26.9609 848.354 28.6282 847.289 30.0745C847.018 30.4425 846.305 31.2401 845.705 31.8469L844.614 32.9502L845.03 34.1785C845.377 35.2011 845.416 35.3978 845.267 35.3537C845.169 35.3245 844.438 35.1605 843.644 34.9891L842.201 34.6777L841.325 35.2028C835.338 38.7962 825.906 41.2674 815.869 41.8732C813.561 42.0125 807.982 42.0137 805.72 41.8754C795.121 41.2274 786.175 38.6958 779.902 34.5699L779.012 33.9846H774.632H770.251L769.675 33.671C768.924 33.2627 767.767 32.1794 767.452 31.5893L767.203 31.1239L767.379 28.6039C767.476 27.2179 767.584 26.0385 767.619 25.9829C767.656 25.923 768.638 25.882 770.038 25.882H772.395L772.166 25.3011C771.949 24.7495 771.906 24.7071 771.305 24.4651C770.678 24.2122 770.645 24.2102 767.069 24.2098C764.859 24.2095 763.441 24.2484 763.402 24.3105Z" fill="white"/>
<path d="M939.037 10.0717H945.988V24.3334H939.037V10.0717ZM929.462 10.0717H936.657V13.053H931.598C930.867 13.053 930.809 13.8413 931.727 14.085C934.292 14.7013 937.388 15.848 937.274 19.503C937.145 22.4844 934.464 24.319 932.701 24.319H924.718V20.7214H930.265C930.996 20.7214 931.053 19.9904 930.508 19.804C926.237 18.643 924.718 17.0664 924.718 14.558C924.718 12.3793 926.18 10.0717 929.462 10.0717ZM901.068 10H908.32V12.8667H902.888C902.157 12.8093 901.541 12.8667 901.541 13.784V19.5174C901.541 20.793 903.189 20.7357 903.189 19.5174V15.246H908.306V20.3057C906.959 22.556 905.009 24.749 901.483 24.6917C897.284 24.6344 894.059 21.4667 894.001 17.5107C893.93 13.5977 897.04 10.129 901.068 10ZM910.456 10.0717H922.826V13.1247H916.791V15.4467H922.095V18.256H916.791V20.6927H922.826V24.3334H910.456V10.0717V10.0717Z" fill="white"/>
<path d="M948.783 10.0703H956.896C960.121 10.0703 962.443 11.7187 962.443 14.5137C962.443 18.054 959.763 19.387 957.512 19.387H955.133V24.332H948.798V10.0703H948.783Z" fill="white"/>
<path d="M965.61 10.0703H971.587L976.274 24.332H969.566L968.907 22.44H964.263L963.604 24.332H960.551L965.61 10.0703Z" fill="white"/>
<path d="M965.367 19.3881L966.643 15.6758L967.933 19.3881H965.367Z" fill="black"/>
<path d="M955.061 12.8652C955.734 12.8652 957.067 13.3526 957.01 14.6282C957.01 15.9039 956.035 16.5776 955.061 16.5202V12.8652Z" fill="black"/>
<path d="M914.656 37.8073H899.721L910.456 27.1289H925.32L914.656 37.8073Z" fill="white"/>
<path d="M925.32 27.1289L914.656 37.8073H922.095L932.817 27.1289H925.32Z" fill="white"/>
<path d="M977.25 10.0711C975.845 10.1284 974.627 11.2321 974.627 12.6941C974.627 14.0414 975.544 15.3744 977.436 15.3744C978.898 15.3744 980.002 14.0271 980.002 12.6368C979.873 11.3468 978.841 9.99943 977.25 10.0711ZM977.25 10.3721C978.712 10.3721 979.572 11.4758 979.629 12.6224C979.687 13.8408 978.712 15.0018 977.436 15.0591C977.436 15.0591 977.379 15.0591 977.307 15.0591C975.845 15.0591 974.928 13.7834 974.928 12.6224C975 11.5331 975.845 10.4294 977.25 10.3721ZM976.275 11.2321V14.2134H976.648V12.8088H977.322L978.182 14.2134H978.612L977.694 12.8088C978.368 12.8088 978.612 12.3788 978.612 11.9488C978.612 11.5761 978.368 11.1604 977.694 11.1604H976.29V11.2321H976.275ZM978.282 12.0204C978.282 12.5078 977.909 12.5651 977.608 12.5651H976.691V11.5331H977.551C977.981 11.5331 978.282 11.5904 978.282 12.0204Z" fill="white"/>
<path fill-rule="evenodd" clip-rule="evenodd" d="M1016.7 7.82218L1016 8.64409V23.3073C1016 33.4858 1016.09 38.1693 1016.3 38.6214C1016.97 40.0744 1014.43 39.9993 1063 39.9993C1111.57 39.9993 1109.03 40.0744 1109.7 38.6214C1109.91 38.1693 1110 33.4858 1110 23.3073V8.64409L1109.3 7.82218L1108.6 7H1063H1017.4L1016.7 7.82218ZM1034.34 12.0675C1035.31 12.7018 1035.59 13.5486 1035.61 16.0124L1035.64 18.356L1033.27 18.4333L1030.9 18.5105V16.7959C1030.9 14.8688 1030.57 14.3916 1029.36 14.5292L1028.6 14.6152L1028.52 17.1996L1028.44 19.784L1029.33 20.4437C1029.82 20.8066 1031.09 21.5307 1032.15 22.0528C1034.29 23.1069 1035.41 24.2144 1035.64 25.5114C1035.72 25.9849 1035.69 28.0429 1035.58 30.0851C1035.3 34.9856 1035.42 34.8854 1029.96 35.0139C1025.8 35.1117 1024.45 34.8172 1023.83 33.6718C1023.68 33.3896 1023.53 32.0525 1023.5 30.7005L1023.45 28.2425H1025.89H1028.33L1028.4 29.5785C1028.52 31.8291 1028.65 32.1169 1029.54 32.1169C1030.67 32.1169 1030.97 31.3915 1030.86 28.9052C1030.74 26.3857 1030.58 26.1786 1027.44 24.4408C1026.18 23.7431 1024.8 22.7756 1024.37 22.2911L1023.59 21.4102V17.6656C1023.59 11.8027 1023.91 11.4949 1029.95 11.6103C1032.7 11.6627 1033.91 11.789 1034.34 12.0675ZM1048.24 13.9472V16.352H1044.99H1041.73V18.6233V20.8945H1043.77H1045.8V23.2993V25.7041H1043.77H1041.73V27.9753V30.2465H1044.99H1048.24V32.6513V35.0561H1043.09H1037.94V23.2993V11.5424H1043.09H1048.24V13.9472ZM1070.18 21.0281V30.5137H1072.89H1075.6V32.7849V35.0561H1070.86H1066.12V23.2993V11.5424H1068.15H1070.18V21.0281ZM1088.06 13.9472V16.352H1084.81H1081.56V18.6233V20.8945H1083.59H1085.62V23.2993V25.7041H1083.59H1081.56V27.9753V30.2465H1084.81H1088.06V32.6513V35.0561H1082.91H1077.76V23.2993V11.5424H1082.91H1088.06V13.9472ZM1100.29 18.7387L1098.08 25.4219V30.239V35.0561H1096.05H1094.02V29.7789V24.5017L1091.99 18.313C1090.87 14.9092 1089.95 12.0488 1089.95 11.956C1089.95 11.8636 1090.95 11.823 1092.17 11.8657L1094.39 11.9432L1095.26 15.1496C1095.75 16.9132 1096.16 18.4162 1096.19 18.4896C1096.21 18.5631 1096.63 17.1202 1097.1 15.2832L1097.97 11.9432L1099.99 11.8096C1101.1 11.7361 1102.12 11.7615 1102.26 11.866C1102.39 11.9729 1101.54 14.969 1100.29 18.7387ZM1060.19 14.4816C1062.13 24.8226 1063.95 34.6882 1063.95 34.8557C1063.95 34.9658 1063.04 35.0561 1061.93 35.0561H1059.91L1059.59 33.4529L1059.27 31.8497H1057.18H1055.08L1054.76 33.4529L1054.44 35.0561H1052.42C1051.31 35.0561 1050.4 34.9658 1050.4 34.8557C1050.4 34.5519 1054.48 12.5287 1054.61 12.1335C1054.7 11.8783 1055.37 11.8094 1057.22 11.8663L1059.71 11.9432L1060.19 14.4816ZM1056.67 22.8349C1056.48 24.6334 1056.26 26.3756 1056.18 26.7061C1056.05 27.252 1056.13 27.3073 1057.1 27.3073H1058.16L1057.72 23.5729C1057.48 21.5189 1057.22 19.777 1057.14 19.7017C1057.06 19.6263 1056.85 21.0363 1056.67 22.8349Z" fill="white"/>
<path fill-rule="evenodd" clip-rule="evenodd" d="M1251.2 7.24771C1248.72 7.83904 1247.08 9.65929 1247.08 11.8308C1247.08 14.0402 1248.07 15.1263 1252.36 17.6634C1253.9 18.5707 1254.84 19.9314 1254.84 21.2605C1254.84 23.4909 1252.38 24.0136 1249.13 22.4739C1248.12 21.996 1247.26 21.6408 1247.23 21.6841C1247.2 21.7275 1247.03 22.179 1246.86 22.6873L1246.55 23.6118L1248.35 24.501C1253.75 27.1569 1257.71 25.9137 1257.71 21.5655C1257.71 18.7481 1256.47 17.0155 1253.05 15.0611C1250.85 13.7989 1249.96 12.8377 1249.96 11.7222C1249.96 9.82011 1252.36 8.80919 1254.84 9.6725C1255.55 9.92035 1256.22 10.1251 1256.32 10.1274C1256.61 10.1337 1257.2 8.17621 1257.01 7.86288C1256.8 7.51882 1254.23 6.96368 1253.03 7.00187C1252.52 7.01824 1251.7 7.12881 1251.2 7.24771ZM1146 7.67276C1146 8.15266 1148.82 20.0647 1149.77 23.5702L1150.41 25.9513L1151.29 25.7591C1153.39 25.3031 1153.25 25.5469 1154.86 19.2668C1155.68 16.0479 1156.43 12.931 1156.53 12.3405C1156.78 10.7897 1157.1 10.7992 1157.31 12.3629C1157.46 13.5206 1159.96 23.3338 1160.15 23.5153C1160.19 23.5498 1160.88 23.4464 1161.69 23.2858C1163.09 23.0081 1163.17 22.9352 1163.5 21.8039C1163.69 21.1497 1164.74 17.687 1165.84 14.1088C1166.93 10.5309 1167.83 7.52629 1167.83 7.43152C1167.83 7.33703 1167.2 7.25977 1166.43 7.25977H1165.03L1163.71 12.2139C1162.99 14.9388 1162.31 17.685 1162.2 18.3168C1161.97 19.6996 1161.52 20.6479 1161.53 19.7528C1161.53 19.4368 1160.85 16.4965 1160.01 13.2191L1158.5 7.25977H1157.04H1155.59L1154.09 13.5063C1153.26 16.942 1152.48 20.2697 1152.35 20.9015C1152.06 22.2924 1152.21 22.7778 1150.45 14.4396C1149.73 11.0436 1149.07 8.03893 1148.99 7.76236C1148.78 7.09894 1146 7.01566 1146 7.67276ZM1170.41 14.4396C1170.41 19.9937 1170.49 21.6189 1170.77 21.6164C1170.97 21.6146 1171.61 21.5331 1172.2 21.4351L1173.28 21.2571V14.2584V7.25977H1171.85H1170.41V14.4396ZM1177.01 13.8483C1177.01 17.4721 1177.11 20.4929 1177.23 20.5612C1177.39 20.654 1186.87 19.78 1187.28 19.6344C1187.32 19.6206 1187.35 19.274 1187.35 18.8645V18.1195L1184.55 18.3067C1183.01 18.4095 1181.4 18.5612 1180.96 18.6436L1180.17 18.7932V13.0264V7.25977H1178.59H1177.01V13.8483ZM1189.94 13.4744V19.6893L1191.45 19.5081C1192.27 19.4084 1194.54 19.3257 1196.47 19.3245L1199.99 19.322V18.4259V17.5296L1196.4 17.7366L1192.81 17.9437V12.6019V7.25977H1191.37H1189.94V13.4744ZM1202.64 13.2191L1202.72 19.1784L1204.08 19.266L1205.44 19.3536V13.3067V7.25977H1204H1202.56L1202.64 13.2191ZM1211.12 13.1042C1209.58 16.3153 1208.32 19.0279 1208.32 19.1321C1208.32 19.2367 1208.96 19.322 1209.74 19.322H1211.16L1211.95 17.5623L1212.74 15.803L1214.62 15.9807C1215.65 16.0787 1216.96 16.1597 1217.52 16.1608C1218.51 16.1628 1218.57 16.2312 1219.42 18.143L1220.3 20.1232L1221.78 20.2252C1222.69 20.2881 1223.21 20.2169 1223.14 20.0399C1222.63 18.8202 1219.11 10.748 1218.41 9.19834L1217.53 7.25977L1215.72 7.26293L1213.92 7.26609L1211.12 13.1042ZM1226.7 7.63111C1226.7 7.8356 1226.44 10.5117 1226.12 13.5781C1225.34 21.1813 1225.29 20.6709 1226.77 20.8251C1227.44 20.8955 1228.01 20.9412 1228.03 20.9271C1228.06 20.913 1228.22 18.8983 1228.41 16.45C1228.59 14.0017 1228.81 11.5462 1228.89 10.9933C1229.05 10.0108 1229.07 10.0369 1229.83 12.1421C1230.25 13.3268 1231.24 15.9348 1232.01 17.9377C1233.39 21.4822 1233.45 21.5842 1234.41 21.7631C1234.94 21.8642 1235.49 21.841 1235.62 21.7114C1235.91 21.4168 1238.84 14.6944 1239.86 11.9985L1240.62 9.98812L1240.84 15.5884C1241.12 22.8415 1241.18 23.1106 1242.61 23.4079C1243.22 23.5348 1243.79 23.571 1243.88 23.4883C1244.01 23.3553 1243.69 17.2263 1243.16 9.77273L1242.98 7.25977H1241.2H1239.41L1237.38 12.0703C1236.26 14.7162 1235.26 17.2364 1235.16 17.6706C1235.05 18.1048 1234.88 18.4601 1234.78 18.4601C1234.68 18.4598 1234.36 17.664 1234.07 16.6913C1233.79 15.7188 1232.83 13.1987 1231.95 11.0915L1230.35 7.25977H1228.52C1227.22 7.25977 1226.7 7.36632 1226.7 7.63111ZM1217.05 12.282C1217.59 13.5436 1218 14.614 1217.95 14.6611C1217.91 14.7082 1216.83 14.6596 1215.55 14.5531L1213.23 14.3595L1213.89 13.0355C1214.25 12.3072 1214.79 11.078 1215.08 10.304C1215.51 9.14751 1215.65 8.99386 1215.83 9.44246C1215.95 9.74257 1216.5 11.0203 1217.05 12.282ZM1190.37 21.083C1178.74 21.9041 1166.51 24.364 1154.69 28.2569L1149.45 29.9829V34.9916C1149.45 37.9853 1149.56 40 1149.72 40C1149.87 40 1150.67 39.6037 1151.49 39.1195C1155.15 36.9598 1161.02 34.3486 1166.28 32.5315C1192.34 23.548 1227.27 23.3625 1253.69 32.0674C1255.82 32.7696 1257.66 33.2831 1257.78 33.2087C1258.53 32.7417 1257.48 32.1642 1252.76 30.4628C1237.53 24.9757 1224.18 22.073 1209.47 21.0523C1204.63 20.7174 1195.33 20.7324 1190.37 21.083Z" fill="white"/>
</svg>
